<?xml version="1.0" encoding="UTF-8"?><svg xmlns="http://www.w3.org/2000/svg" width="16cm" height="9cm" xmlns:xlink="http://www.w3.org/1999/xlink" viewBox="0 0 453.54 255.12"><defs><style>.cls-1,.cls-2,.cls-3,.cls-4,.cls-5{fill:none;}.cls-2{stroke-width:.03px;}.cls-2,.cls-3,.cls-4,.cls-5{stroke-miterlimit:10;}.cls-2,.cls-5{stroke:#f9f9f9;}.cls-6{clip-path:url(#clippath);}.cls-7{fill:#e8b343;}.cls-8{fill:#e3e5e8;}.cls-9{fill:#e7b343;}.cls-10{fill:#ebcc7e;}.cls-11{fill:#edece8;}.cls-12{fill:#fff;}.cls-13{fill:#62bc5b;}.cls-14{fill:#2cb34b;}.cls-15{fill:#080a09;stroke:#b5b4ad;stroke-miterlimit:10;stroke-width:.09px;}.cls-16{clip-path:url(#clippath-1);}.cls-17{clip-path:url(#clippath-3);}.cls-18{clip-path:url(#clippath-2);}.cls-3{stroke-width:.17px;}.cls-3,.cls-4{stroke:#070b0f;}.cls-19{fill:#e8e7e6;isolation:isolate;opacity:.45;}.cls-20{fill:#8ec96d;opacity:.39;stroke:#fff;stroke-linecap:round;stroke-linejoin:round;stroke-width:2.07px;}.cls-21{fill:#5ecbf1;opacity:.69;}.cls-4{stroke-width:.25px;}.cls-5{stroke-width:.02px;}</style><clipPath id="clippath"><rect class="cls-1" x="62.46" y="205.46" width="39.17" height="39.17" transform="translate(-151.79 173.11) rotate(-57.45)"/></clipPath><clipPath id="clippath-1"><rect class="cls-1" x="62.46" y="205.46" width="39.17" height="39.17" transform="translate(-151.79 173.11) rotate(-57.45)"/></clipPath><clipPath id="clippath-2"><circle class="cls-1" cx="82.05" cy="225.05" r="19.59"/></clipPath><clipPath id="clippath-3"><rect class="cls-1" x="62.46" y="205.46" width="39.17" height="39.17" transform="translate(-151.79 173.11) rotate(-57.45)"/></clipPath></defs><g id="Layer_1"><rect class="cls-14" x="225" y="138" width="229" height="117"/><rect class="cls-21" x="-2" width="456" height="138"/><rect class="cls-13" x="-2" y="138" width="227" height="117"/><path class="cls-11" d="m122.93,42.13c-5.61-2.14-8.74-8.45-5.44-12.77.36-.47.82-.93,1.47-1.08.97-.22,1.94.34,2.58.98,1.88,1.88,2.2,4.72.78,6.86s-4.5,3.42-7.42,3.1c-3.01-.33-5.53-2.21-6.89-4.45s-1.71-4.82-1.74-7.33c-.02-1.55.11-3.18,1.13-4.47,1.77-2.25,5.46-2.67,8.69-2.88,2.5-.16,5.81.14,6.32,2.18.25.99-.38,2.01-1.21,2.76-2.59,2.32-7.43,2.58-10.36.56s-3.5-6.01-1.21-8.54c1.49-1.64,3.84-2.57,6.15-3.31,4.5-1.43,9.55-2.37,14.1-1.04s8.05,5.65,6.32,9.37c-2.52.09-4.73-1.76-5.17-3.81-.73-3.37,2.62-6.6,6.51-7.74s8.18-.71,12.27-.26c1.95.21,3.96.44,5.62,1.31s2.85,2.57,2.27,4.13c-.24.65-.76,1.2-1.3,1.71-1.33,1.24-2.91,2.3-4.64,3.13-1.31.63-2.88,1.13-4.31.71-1.81-.54-2.6-2.46-2.03-3.99s2.13-2.65,3.82-3.42c6.86-3.13,16.75-.53,19.78,5.45,3.03,5.98-2.12,13.87-9.89,14.72-1.91.21-3.95.01-5.54-.89s-2.58-2.61-2.05-4.14c.62-1.77,3.13-2.77,5.32-2.45s3.99,1.7,5.05,3.32c2.25,3.41,1.53,7.84-1.16,11.02s-7.11,5.17-11.7,5.97c-4.26.74-9.51.15-11.61-3-.94-1.4-1.07-3.07-1.09-4.68-.04-2.87,1.09-6.55,4.54-6.84-.26.02.28,5.56.02,6.1-.72,1.52-1.88,1.99-3.65,2.81-4.29,1.98-9.75,2.65-14.32.9Z"/><path class="cls-11" d="m377.24,49.13c5.61-2.14,8.74-8.45,5.44-12.77-.36-.47-.82-.93-1.47-1.08-.97-.22-1.94.34-2.58.98-1.88,1.88-2.2,4.72-.78,6.86,1.42,2.13,4.5,3.42,7.42,3.1,3.01-.33,5.53-2.21,6.89-4.45s1.71-4.82,1.74-7.33c.02-1.55-.11-3.18-1.13-4.47-1.77-2.25-5.46-2.67-8.69-2.88-2.5-.16-5.81.14-6.32,2.18-.25.99.38,2.01,1.21,2.76,2.59,2.32,7.43,2.58,10.36.56s3.5-6.01,1.21-8.54c-1.49-1.64-3.84-2.57-6.15-3.31-4.5-1.43-9.55-2.37-14.1-1.04s-8.05,5.65-6.32,9.37c2.52.09,4.73-1.76,5.17-3.81.73-3.37-2.62-6.6-6.51-7.74s-8.18-.71-12.27-.26c-1.95.21-3.96.44-5.62,1.31s-2.85,2.57-2.27,4.13c.24.65.76,1.2,1.3,1.71,1.33,1.24,2.91,2.3,4.64,3.13,1.31.63,2.88,1.13,4.31.71,1.81-.54,2.6-2.46,2.03-3.99s-2.13-2.65-3.82-3.42c-6.86-3.13-16.75-.53-19.78,5.45-3.03,5.98,2.12,13.87,9.89,14.72,1.91.21,3.95.01,5.54-.89s2.58-2.61,2.05-4.14c-.62-1.77-3.13-2.77-5.32-2.45s-3.99,1.7-5.05,3.32c-2.25,3.41-1.53,7.84,1.16,11.02s7.11,5.17,11.7,5.97c4.26.74,9.51.15,11.61-3,.94-1.4,1.07-3.07,1.09-4.68.04-2.87-1.09-6.55-4.54-6.84.26.02-.28,5.56-.02,6.1.72,1.52,1.88,1.99,3.65,2.81,4.29,1.98,9.75,2.65,14.32.9Z"/><path class="cls-11" d="m385.93,90.13c-5.61-2.14-8.74-8.45-5.44-12.77.36-.47.82-.93,1.47-1.08.97-.22,1.94.34,2.58.98,1.88,1.88,2.2,4.72.78,6.86-1.42,2.13-4.5,3.42-7.42,3.1-3.01-.33-5.53-2.21-6.89-4.45s-1.71-4.82-1.74-7.33c-.02-1.55.11-3.18,1.13-4.47,1.77-2.25,5.46-2.67,8.69-2.88,2.5-.16,5.81.14,6.32,2.18.25.99-.38,2.01-1.21,2.76-2.59,2.32-7.43,2.58-10.36.56s-3.5-6.01-1.21-8.54c1.49-1.64,3.84-2.57,6.15-3.31,4.5-1.43,9.55-2.37,14.1-1.04s8.05,5.65,6.32,9.37c-2.52.09-4.73-1.76-5.17-3.81-.73-3.37,2.62-6.6,6.51-7.74s8.18-.71,12.27-.26c1.95.21,3.96.44,5.62,1.31s2.85,2.57,2.27,4.13c-.24.65-.76,1.2-1.3,1.71-1.33,1.24-2.91,2.3-4.64,3.13-1.31.63-2.88,1.13-4.31.71-1.81-.54-2.6-2.46-2.03-3.99s2.13-2.65,3.82-3.42c6.86-3.13,16.75-.53,19.78,5.45s-2.12,13.87-9.89,14.72c-1.91.21-3.95.01-5.54-.89s-2.58-2.61-2.05-4.14c.62-1.77,3.13-2.77,5.32-2.45s3.99,1.7,5.05,3.32c2.25,3.41,1.53,7.84-1.16,11.02s-7.11,5.17-11.7,5.97c-4.26.74-9.51.15-11.61-3-.94-1.4-1.07-3.07-1.09-4.68-.04-2.87,1.09-6.55,4.54-6.84-.26.02.28,5.56.02,6.1-.72,1.52-1.88,1.99-3.65,2.81-4.29,1.98-9.75,2.65-14.32.9Z"/><path class="cls-9" d="m10.07,203.87c1.48,12.73,10.79,21.45,18.13,21.48,7.37.03,17.01-8.65,18.8-21.48"/><path class="cls-10" d="m28.54,202c10.17,0,18.42.84,18.42,1.87,0,.96-7.2,1.77-16.44,1.87h-1.97c-10.17,0-18.42-.84-18.42-1.87s8.24-1.87,18.41-1.87Z"/><path class="cls-7" d="m24.14,224.58s-4.78,4.54-2.28,8.09l12.71.07c2.5-3.55-2.28-8.09-2.28-8.09"/><path class="cls-15" d="m19.03,231.15h18.51c.91,0,1.64.72,1.64,1.6v14.64c0,.89-.73,1.6-1.64,1.6h-18.51c-.91,0-1.64-.72-1.64-1.6v-14.64c0-.89.73-1.6,1.64-1.6Z"/><path class="cls-19" d="m30.13,244.54l-3.75.07c-.78,0-1.5-.35-1.95-.96l-1.57-2.16c-.57-.78-.59-1.81-.05-2.6l1.45-2.18c.43-.64,1.16-1.03,1.93-1.05l3.75-.07c.78,0,1.5.35,1.95.96l1.57,2.16c.57.78.59,1.81.05,2.6l-1.45,2.18c-.43.64-1.16,1.03-1.93,1.05Z"/></g><g id="Layer_3"><path class="cls-20" d="m376.5,138c3.19,5.72,46.73,51.67,48.5,53.5,0,0-378.37,0-378.37,0,0,0,49.59-53.5,49.59-53.5"/><path class="cls-11" d="m64.34,42.01c7.5-1.19,9.64-16.71,1.39-12.87-7.19,17.78,23.65,8.12,14.14-6.3-2.09-3.66-19.28-4.97-13.8,2.05,37.64,4.77-15.38-30.41-15-2.94,21.71-9.66-27.26-20.15-20.21-4.66,27.25,12.41-2.81-18.3-12.61,1.89-6.49,9.24,15.27,22.44,17.48,9.68-6.55-8.32-16.47,5.55-9.21,11.89,7.58,12.39,36.28,3.6,19.87-8.55-2.72,10.03,10.41,12.47,17.95,9.82Z"/><path class="cls-11" d="m100.24,83.13c5.61-2.14,8.74-8.45,5.44-12.77-.36-.47-.82-.93-1.47-1.08-.97-.22-1.94.34-2.58.98-1.88,1.88-2.2,4.72-.78,6.86s4.5,3.42,7.42,3.1c3.01-.33,5.53-2.21,6.89-4.45s1.71-4.82,1.74-7.33c.02-1.55-.11-3.18-1.13-4.47-1.77-2.25-5.46-2.67-8.69-2.88-2.5-.16-5.81.14-6.32,2.18-.25.99.38,2.01,1.21,2.76,2.59,2.32,7.43,2.58,10.36.56s3.5-6.01,1.21-8.54c-1.49-1.64-3.84-2.57-6.15-3.31-4.5-1.43-9.55-2.37-14.1-1.04s-8.05,5.65-6.32,9.37c2.52.09,4.73-1.76,5.17-3.81.73-3.37-2.62-6.6-6.51-7.74s-8.18-.71-12.27-.26c-1.95.21-3.96.44-5.62,1.31s-2.85,2.57-2.27,4.13c.24.65.76,1.2,1.3,1.71,1.33,1.24,2.91,2.3,4.64,3.13,1.31.63,2.88,1.13,4.31.71,1.81-.54,2.6-2.46,2.03-3.99s-2.13-2.65-3.82-3.42c-6.86-3.13-16.75-.53-19.78,5.45-3.03,5.98,2.12,13.87,9.89,14.72,1.91.21,3.95.01,5.54-.89s2.58-2.61,2.05-4.14c-.62-1.77-3.13-2.77-5.32-2.45s-3.99,1.7-5.05,3.32c-2.25,3.41-1.53,7.84,1.16,11.02s7.11,5.17,11.7,5.97c4.26.74,9.51.15,11.61-3,.94-1.4,1.07-3.07,1.09-4.68.04-2.87-1.09-6.55-4.54-6.84.26.02-.28,5.56-.02,6.1.72,1.52,1.88,1.99,3.65,2.81,4.29,1.98,9.75,2.65,14.32.9Z"/></g><g id="Layer_2"><polyline class="cls-3" points="320.9 81.75 308 143.91 150 143.91"/><rect class="cls-8" x="132.6" y="76" width="5.03" height="85.52" rx="2.52" ry="2.52"/><rect class="cls-8" x="320.9" y="76" width="5.03" height="85.52" rx="2.52" ry="2.52"/><rect class="cls-8" x="132.6" y="76" width="192.6" height="5.75" rx="2.87" ry="2.87"/><polyline class="cls-4" points="137.64 159.83 150.16 143.91 137.64 81.75"/><line class="cls-3" x1="308" y1="143.91" x2="320.9" y2="159.01"/><g id="Artwork_6"><g class="cls-6"><g class="cls-16"><path class="cls-12" d="m98.56,235.59c-5.82,9.12-17.93,11.79-27.05,5.97s-11.79-17.93-5.97-27.05,17.93-11.79,27.05-5.97c9.12,5.82,11.79,17.93,5.97,27.05"/></g><g class="cls-18"><polygon points="100.98 216.88 91.44 214.98 88.32 205.77 94.73 198.46 104.27 200.36 107.39 209.57 100.98 216.88"/><polygon class="cls-5" points="100.98 216.88 91.44 214.98 88.32 205.77 94.73 198.46 104.27 200.36 107.39 209.57 100.98 216.88"/><polygon points="102.91 248.89 93.37 246.99 90.25 237.78 96.66 230.47 106.2 232.37 109.32 241.58 102.91 248.89"/><polygon class="cls-5" points="102.91 248.89 93.37 246.99 90.25 237.78 96.66 230.47 106.2 232.37 109.32 241.58 102.91 248.89"/><polygon points="69.34 219.44 59.81 217.54 56.68 208.33 63.1 201.02 72.64 202.92 75.76 212.13 69.34 219.44"/><polygon class="cls-5" points="69.34 219.44 59.81 217.54 56.68 208.33 63.1 201.02 72.64 202.92 75.76 212.13 69.34 219.44"/><polygon points="70.33 251.82 60.79 249.92 57.66 240.71 64.08 233.4 73.62 235.3 76.74 244.51 70.33 251.82"/><polygon class="cls-5" points="70.33 251.82 60.79 249.92 57.66 240.71 64.08 233.4 73.62 235.3 76.74 244.51 70.33 251.82"/></g><g class="cls-17"><polygon points="86.32 233.36 77.49 231.31 74.31 222.82 79.96 216.38 88.79 218.43 91.97 226.92 86.32 233.36"/><polygon class="cls-2" points="86.32 233.36 77.49 231.31 74.31 222.82 79.96 216.38 88.79 218.43 91.97 226.92 86.32 233.36"/></g></g></g></g></svg>