<?xml version="1.0" encoding="UTF-8"?><svg id="Layer_1" xmlns="http://www.w3.org/2000/svg" width="3cm" height="1cm" viewBox="0 0 85.04 28.35"><defs><style>.cls-1{fill:#231f20;}</style></defs><path class="cls-1" d="m18.35,13.01c.31,0,.6.04.87.1.27.07.53.18.75.34.23.16.43.37.6.63s.32.58.43.96c.21-.04.31-.16.31-.36,0-.16-.05-.36-.16-.6-.1-.24-.27-.48-.5-.71s-.53-.43-.9-.59-.82-.25-1.36-.25c-.3,0-.56.03-.77.08s-.4.11-.54.18c-.22-.12-.42-.29-.59-.48-.18-.2-.32-.42-.45-.67s-.22-.52-.28-.81-.1-.59-.1-.9c0-.85.17-1.59.5-2.2.33-.61.76-1.11,1.3-1.5.54-.39,1.14-.67,1.81-.85s1.34-.27,2.02-.27c.61,0,1.16.04,1.65.12s.94.19,1.32.33c.39.14.73.29,1.02.46.29.17.54.34.74.52.07.22.12.47.16.73.04.26.06.54.06.82,0,.19-.01.38-.04.59s-.07.41-.13.6c-.06.19-.13.38-.22.55-.09.17-.19.32-.31.45-.1-.08-.25-.16-.44-.26-.19-.09-.41-.18-.66-.26-.25-.08-.51-.15-.8-.2-.29-.06-.58-.08-.86-.08-.39,0-.67.03-.82.09s-.23.16-.23.29c0,.07,0,.13.03.18.12-.03.26-.06.41-.07.15-.01.29-.02.43-.02.54,0,1.07.07,1.59.22.52.15.98.4,1.39.74.41.34.74.8.99,1.36.25.56.38,1.25.38,2.08,0,.65-.12,1.26-.38,1.84-.25.58-.62,1.08-1.1,1.52s-1.08.79-1.8,1.04c-.72.26-1.54.39-2.48.39-.48,0-.93-.02-1.35-.06-.42-.04-.82-.1-1.2-.19-.38-.09-.75-.2-1.1-.34-.35-.14-.7-.31-1.04-.52-.21-.33-.38-.69-.51-1.06-.13-.38-.2-.8-.2-1.28,0-.38.06-.73.19-1.05.13-.33.31-.61.53-.85.23-.24.49-.43.81-.57.31-.14.66-.21,1.03-.21Z"/><path class="cls-1" d="m35,18.06c-.26.25-.62.48-1.09.68-.47.2-1.04.3-1.7.3-.35,0-.69-.04-1.01-.12s-.61-.21-.86-.38-.44-.39-.59-.65-.22-.57-.22-.92v-6.72h-2.19c-.24-.38-.41-.76-.52-1.14-.11-.38-.16-.78-.16-1.2,0-.32.03-.61.08-.87s.12-.49.2-.7.17-.39.28-.54c.1-.16.21-.29.31-.39h9.7c.18.3.32.67.45,1.12s.18.89.18,1.35c0,.42-.04.79-.14,1.09-.09.3-.22.55-.38.74-.16.19-.35.33-.57.42-.22.09-.46.14-.72.14h-2.75c-.02.06-.03.11-.03.16,0,.06.01.11.04.15.03.04.08.07.16.1s.19.05.33.06c.14.01.33.02.56.02h.65v7.33Z"/><path class="cls-1" d="m38.96,6.33c.24-.17.52-.33.83-.47s.63-.26.97-.36.69-.17,1.06-.22c.37-.05.73-.08,1.1-.08.49,0,.97.05,1.45.15.48.1.92.25,1.31.46.39.21.73.48,1.01.81.28.33.47.73.57,1.18l2.14,9.83c-.29.41-.69.75-1.21,1.01-.52.26-1.18.4-1.97.4-.35,0-.68-.03-.98-.1-.31-.07-.58-.17-.81-.31-.23-.14-.43-.31-.58-.51s-.25-.45-.3-.72l-.21-1.27c.19,0,.39-.03.58-.08s.36-.1.52-.17c.15-.07.28-.14.38-.22.1-.08.15-.17.15-.25,0-.11-.04-.2-.12-.27-.11.09-.24.17-.39.25-.15.07-.31.13-.47.18-.17.05-.33.08-.5.11-.17.02-.32.04-.46.04-.27,0-.51-.02-.72-.06-.21-.04-.39-.08-.55-.14s-.29-.12-.4-.18c-.11-.07-.21-.13-.28-.19-.03.03-.05.07-.07.12-.02.04-.03.1-.03.15,0,.1.05.2.15.29s.23.16.39.23c.16.07.35.12.56.16.21.04.43.07.66.08.04.49.08.87.13,1.16s.09.47.14.55c-.06.12-.17.25-.33.38-.17.14-.37.26-.62.38-.25.12-.53.22-.84.29-.32.08-.65.11-1.01.11-.44,0-.86-.06-1.26-.17-.39-.11-.74-.27-1.03-.46s-.53-.44-.7-.72c-.17-.28-.26-.6-.26-.94,0-.08,0-.15,0-.23s.02-.16.04-.25l2-9.93Zm4.41,5.37c-.07-.42-.12-.75-.16-1-.04-.25-.08-.44-.12-.57-.04-.13-.08-.21-.13-.25-.05-.04-.1-.06-.17-.06-.04,0-.08,0-.12.02-.04.01-.07.03-.1.04l.36,2.11s.06.05.11.06c.05.01.09.02.13.02.06,0,.11,0,.16-.03.05-.02.09-.03.11-.05l-.05-.3Z"/><path class="cls-1" d="m61.4,15.66c-.11,1.06-.41,1.89-.91,2.49-.5.59-1.2.89-2.11.89-.29,0-.59-.04-.89-.11-.3-.08-.58-.21-.86-.41s-.54-.47-.78-.81-.45-.78-.63-1.32l-.34-1.02c-.24,0-.44-.02-.59-.05-.15-.02-.28-.05-.4-.07-.02.02-.04.05-.05.08s-.02.08-.02.15c0,.08.05.15.15.21s.3.1.61.12l.53,1.5v.89c-.35.28-.77.49-1.25.63-.48.14-.99.21-1.52.21-.39,0-.74-.04-1.06-.13-.32-.09-.6-.22-.84-.4-.24-.18-.42-.4-.55-.67-.13-.27-.2-.59-.2-.95V6.97c0-.16.07-.32.22-.47.14-.16.34-.3.59-.44.25-.14.54-.27.88-.38.34-.11.7-.21,1.08-.3.38-.08.79-.15,1.2-.19.42-.04.83-.07,1.23-.07.91,0,1.73.11,2.48.32.75.22,1.39.54,1.92.96.53.43.94.96,1.23,1.59s.44,1.36.44,2.2c0,.49-.07.94-.2,1.35s-.31.78-.54,1.1c-.23.32-.49.59-.79.82-.3.23-.62.4-.96.52,0,.12.03.21.09.26.06.05.14.07.23.07s.22-.03.39-.1c.18-.07.37-.19.59-.38l1.62,1.85Zm-6.46-4.22s.05.02.09.03c.04,0,.07,0,.08,0,.15,0,.26-.05.32-.16.06-.1.09-.27.09-.51v-.38c0-.24-.03-.42-.08-.53-.05-.11-.15-.17-.3-.17-.03,0-.07,0-.11.01-.04,0-.08.02-.1.03,0,.06,0,.11,0,.18v1.49Z"/><path class="cls-1" d="m69.43,18.06c-.26.25-.62.48-1.09.68-.47.2-1.04.3-1.7.3-.35,0-.69-.04-1.01-.12s-.61-.21-.86-.38-.44-.39-.59-.65-.22-.57-.22-.92v-6.72h-2.19c-.24-.38-.41-.76-.52-1.14-.11-.38-.16-.78-.16-1.2,0-.32.03-.61.08-.87s.12-.49.2-.7.17-.39.28-.54c.1-.16.21-.29.31-.39h9.7c.18.3.32.67.45,1.12s.18.89.18,1.35c0,.42-.04.79-.14,1.09-.09.3-.22.55-.38.74-.16.19-.35.33-.57.42-.22.09-.46.14-.72.14h-2.75c-.02.06-.03.11-.03.16,0,.06.01.11.04.15.03.04.08.07.16.1s.19.05.33.06c.14.01.33.02.56.02h.65v7.33Z"/></svg>