<?xml version="1.0" encoding="UTF-8"?><svg id="Layer_1" xmlns="http://www.w3.org/2000/svg" width="16cm" height="9cm" viewBox="0 0 453.54 255.12"><defs><style>.cls-1{fill:#edece8;opacity:.32;}.cls-2{fill:#5ecbf1;opacity:.69;}</style></defs><rect class="cls-2" x="-1.43" y="-.21" width="456" height="257.21"/><path class="cls-1" d="m123.5,41.92c-5.61-2.14-8.74-8.45-5.44-12.77.36-.47.82-.93,1.47-1.08.97-.22,1.94.34,2.58.98,1.88,1.88,2.2,4.72.78,6.86s-4.5,3.42-7.42,3.1c-3.01-.33-5.53-2.21-6.89-4.45s-1.71-4.82-1.74-7.33c-.02-1.55.11-3.18,1.13-4.47,1.77-2.25,5.46-2.67,8.69-2.88,2.5-.16,5.81.14,6.32,2.18.25.99-.38,2.01-1.21,2.76-2.59,2.32-7.43,2.58-10.36.56s-3.5-6.01-1.21-8.54c1.49-1.64,3.84-2.57,6.15-3.31,4.5-1.43,9.55-2.37,14.1-1.04s8.05,5.65,6.32,9.37c-2.52.09-4.73-1.76-5.17-3.81-.73-3.37,2.62-6.6,6.51-7.74s8.18-.71,12.27-.26c1.95.21,3.96.44,5.62,1.31s2.85,2.57,2.27,4.13c-.24.65-.76,1.2-1.3,1.71-1.33,1.24-2.91,2.3-4.64,3.13-1.31.63-2.88,1.13-4.31.71-1.81-.54-2.6-2.46-2.03-3.99s2.13-2.65,3.82-3.42c6.86-3.13,16.75-.53,19.78,5.45,3.03,5.98-2.12,13.87-9.89,14.72-1.91.21-3.95.01-5.54-.89s-2.58-2.61-2.05-4.14c.62-1.77,3.13-2.77,5.32-2.45s3.99,1.7,5.05,3.32c2.25,3.41,1.53,7.84-1.16,11.02s-7.11,5.17-11.7,5.97c-4.26.74-9.51.15-11.61-3-.94-1.4-1.07-3.07-1.09-4.68-.04-2.87,1.09-6.55,4.54-6.84-.26.02.28,5.56.02,6.1-.72,1.52-1.88,1.99-3.65,2.81-4.29,1.98-9.75,2.65-14.32.9Z"/><path class="cls-1" d="m377.82,48.92c5.61-2.14,8.74-8.45,5.44-12.77-.36-.47-.82-.93-1.47-1.08-.97-.22-1.94.34-2.58.98-1.88,1.88-2.2,4.72-.78,6.86,1.42,2.13,4.5,3.42,7.42,3.1,3.01-.33,5.53-2.21,6.89-4.45s1.71-4.82,1.74-7.33c.02-1.55-.11-3.18-1.13-4.47-1.77-2.25-5.46-2.67-8.69-2.88-2.5-.16-5.81.14-6.32,2.18-.25.99.38,2.01,1.21,2.76,2.59,2.32,7.43,2.58,10.36.56s3.5-6.01,1.21-8.54c-1.49-1.64-3.84-2.57-6.15-3.31-4.5-1.43-9.55-2.37-14.1-1.04s-8.05,5.65-6.32,9.37c2.52.09,4.73-1.76,5.17-3.81.73-3.37-2.62-6.6-6.51-7.74s-8.18-.71-12.27-.26c-1.95.21-3.96.44-5.62,1.31s-2.85,2.57-2.27,4.13c.24.65.76,1.2,1.3,1.71,1.33,1.24,2.91,2.3,4.64,3.13,1.31.63,2.88,1.13,4.31.71,1.81-.54,2.6-2.46,2.03-3.99s-2.13-2.65-3.82-3.42c-6.86-3.13-16.75-.53-19.78,5.45s2.12,13.87,9.89,14.72c1.91.21,3.95.01,5.54-.89s2.58-2.61,2.05-4.14c-.62-1.77-3.13-2.77-5.32-2.45s-3.99,1.7-5.05,3.32c-2.25,3.41-1.53,7.84,1.16,11.02s7.11,5.17,11.7,5.97c4.26.74,9.51.15,11.61-3,.94-1.4,1.07-3.07,1.09-4.68.04-2.87-1.09-6.55-4.54-6.84.26.02-.28,5.56-.02,6.1.72,1.52,1.88,1.99,3.65,2.81,4.29,1.98,9.75,2.65,14.32.9Z"/><path class="cls-1" d="m386.5,89.92c-5.61-2.14-8.74-8.45-5.44-12.77.36-.47.82-.93,1.47-1.08.97-.22,1.94.34,2.58.98,1.88,1.88,2.2,4.72.78,6.86-1.42,2.13-4.5,3.42-7.42,3.1-3.01-.33-5.53-2.21-6.89-4.45s-1.71-4.82-1.74-7.33c-.02-1.55.11-3.18,1.13-4.47,1.77-2.25,5.46-2.67,8.69-2.88,2.5-.16,5.81.14,6.32,2.18.25.99-.38,2.01-1.21,2.76-2.59,2.32-7.43,2.58-10.36.56s-3.5-6.01-1.21-8.54c1.49-1.64,3.84-2.57,6.15-3.31,4.5-1.43,9.55-2.37,14.1-1.04s8.05,5.65,6.32,9.37c-2.52.09-4.73-1.76-5.17-3.81-.73-3.37,2.62-6.6,6.51-7.74s8.18-.71,12.27-.26c1.95.21,3.96.44,5.62,1.31s2.85,2.57,2.27,4.13c-.24.65-.76,1.2-1.3,1.71-1.33,1.24-2.91,2.3-4.64,3.13-1.31.63-2.88,1.13-4.31.71-1.81-.54-2.6-2.46-2.03-3.99s2.13-2.65,3.82-3.42c6.86-3.13,16.75-.53,19.78,5.45s-2.12,13.87-9.89,14.72c-1.91.21-3.95.01-5.54-.89s-2.58-2.61-2.05-4.14c.62-1.77,3.13-2.77,5.32-2.45s3.99,1.7,5.05,3.32c2.25,3.41,1.53,7.84-1.16,11.02s-7.11,5.17-11.7,5.97c-4.26.74-9.51.15-11.61-3-.94-1.4-1.07-3.07-1.09-4.68-.04-2.87,1.09-6.55,4.54-6.84-.26.02.28,5.56.02,6.1-.72,1.52-1.88,1.99-3.65,2.81-4.29,1.98-9.75,2.65-14.32.9Z"/><path class="cls-1" d="m64.91,41.8c7.5-1.19,9.64-16.71,1.39-12.87-7.19,17.78,23.65,8.12,14.14-6.3-2.09-3.66-19.28-4.97-13.8,2.05,37.64,4.77-15.38-30.41-15-2.94,21.71-9.66-27.26-20.15-20.21-4.66,27.25,12.41-2.81-18.3-12.61,1.89-6.49,9.24,15.27,22.44,17.48,9.68-6.55-8.32-16.47,5.55-9.21,11.89,7.58,12.39,36.28,3.6,19.87-8.55-2.72,10.03,10.41,12.47,17.95,9.82Z"/><path class="cls-1" d="m100.82,82.92c5.61-2.14,8.74-8.45,5.44-12.77-.36-.47-.82-.93-1.47-1.08-.97-.22-1.94.34-2.58.98-1.88,1.88-2.2,4.72-.78,6.86s4.5,3.42,7.42,3.1c3.01-.33,5.53-2.21,6.89-4.45s1.71-4.82,1.74-7.33c.02-1.55-.11-3.18-1.13-4.47-1.77-2.25-5.46-2.67-8.69-2.88-2.5-.16-5.81.14-6.32,2.18-.25.99.38,2.01,1.21,2.76,2.59,2.32,7.43,2.58,10.36.56s3.5-6.01,1.21-8.54c-1.49-1.64-3.84-2.57-6.15-3.31-4.5-1.43-9.55-2.37-14.1-1.04s-8.05,5.65-6.32,9.37c2.52.09,4.73-1.76,5.17-3.81.73-3.37-2.62-6.6-6.51-7.74s-8.18-.71-12.27-.26c-1.95.21-3.96.44-5.62,1.31s-2.85,2.57-2.27,4.13c.24.65.76,1.2,1.3,1.71,1.33,1.24,2.91,2.3,4.64,3.13,1.31.63,2.88,1.13,4.31.71,1.81-.54,2.6-2.46,2.03-3.99s-2.13-2.65-3.82-3.42c-6.86-3.13-16.75-.53-19.78,5.45-3.03,5.98,2.12,13.87,9.89,14.72,1.91.21,3.95.01,5.54-.89s2.58-2.61,2.05-4.14c-.62-1.77-3.13-2.77-5.32-2.45s-3.99,1.7-5.05,3.32c-2.25,3.41-1.53,7.84,1.16,11.02s7.11,5.17,11.7,5.97c4.26.74,9.51.15,11.61-3,.94-1.4,1.07-3.07,1.09-4.68.04-2.87-1.09-6.55-4.54-6.84.26.02-.28,5.56-.02,6.1.72,1.52,1.88,1.99,3.65,2.81,4.29,1.98,9.75,2.65,14.32.9Z"/><path class="cls-1" d="m181.8,94.74c5.61-2.14,8.74-8.45,5.44-12.77-.36-.47-.82-.93-1.47-1.08-.97-.22-1.94.34-2.58.98-1.88,1.88-2.2,4.72-.78,6.86s4.5,3.42,7.42,3.1c3.01-.33,5.53-2.21,6.89-4.45s1.71-4.82,1.74-7.33c.02-1.55-.11-3.18-1.13-4.47-1.77-2.25-5.46-2.67-8.69-2.88-2.5-.16-5.81.14-6.32,2.18-.25.99.38,2.01,1.21,2.76,2.59,2.32,7.43,2.58,10.36.56s3.5-6.01,1.21-8.54c-1.49-1.64-3.84-2.57-6.15-3.31-4.5-1.43-9.55-2.37-14.1-1.04s-8.05,5.65-6.32,9.37c2.52.09,4.73-1.76,5.17-3.81.73-3.37-2.62-6.6-6.51-7.74s-8.18-.71-12.27-.26c-1.95.21-3.96.44-5.62,1.31s-2.85,2.57-2.27,4.13c.24.65.76,1.2,1.3,1.71,1.33,1.24,2.91,2.3,4.64,3.13,1.31.63,2.88,1.13,4.31.71,1.81-.54,2.6-2.46,2.03-3.99s-2.13-2.65-3.82-3.42c-6.86-3.13-16.75-.53-19.78,5.45-3.03,5.98,2.12,13.87,9.89,14.72,1.91.21,3.95.01,5.54-.89s2.58-2.61,2.05-4.14c-.62-1.77-3.13-2.77-5.32-2.45s-3.99,1.7-5.05,3.32c-2.25,3.41-1.53,7.84,1.16,11.02s7.11,5.17,11.7,5.97c4.26.74,9.51.15,11.61-3,.94-1.4,1.07-3.07,1.09-4.68.04-2.87-1.09-6.55-4.54-6.84.26.02-.28,5.56-.02,6.1.72,1.52,1.88,1.99,3.65,2.81,4.29,1.98,9.75,2.65,14.32.9Z"/><path class="cls-1" d="m64.8,129.74c5.61-2.14,8.74-8.45,5.44-12.77-.36-.47-.82-.93-1.47-1.08-.97-.22-1.94.34-2.58.98-1.88,1.88-2.2,4.72-.78,6.86s4.5,3.42,7.42,3.1c3.01-.33,5.53-2.21,6.89-4.45s1.71-4.82,1.74-7.33c.02-1.55-.11-3.18-1.13-4.47-1.77-2.25-5.46-2.67-8.69-2.88-2.5-.16-5.81.14-6.32,2.18-.25.99.38,2.01,1.21,2.76,2.59,2.32,7.43,2.58,10.36.56s3.5-6.01,1.21-8.54c-1.49-1.64-3.84-2.57-6.15-3.31-4.5-1.43-9.55-2.37-14.1-1.04s-8.05,5.65-6.32,9.37c2.52.09,4.73-1.76,5.17-3.81.73-3.37-2.62-6.6-6.51-7.74s-8.18-.71-12.27-.26c-1.95.21-3.96.44-5.62,1.31s-2.85,2.57-2.27,4.13c.24.65.76,1.2,1.3,1.71,1.33,1.24,2.91,2.3,4.64,3.13,1.31.63,2.88,1.13,4.31.71,1.81-.54,2.6-2.46,2.03-3.99s-2.13-2.65-3.82-3.42c-6.86-3.13-16.75-.53-19.78,5.45-3.03,5.98,2.12,13.87,9.89,14.72,1.91.21,3.95.01,5.54-.89s2.58-2.61,2.05-4.14c-.62-1.77-3.13-2.77-5.32-2.45s-3.99,1.7-5.05,3.32c-2.25,3.41-1.53,7.84,1.16,11.02s7.11,5.17,11.7,5.97c4.26.74,9.51.15,11.61-3,.94-1.4,1.07-3.07,1.09-4.68.04-2.87-1.09-6.55-4.54-6.84.26.02-.28,5.56-.02,6.1.72,1.52,1.88,1.99,3.65,2.81,4.29,1.98,9.75,2.65,14.32.9Z"/><path class="cls-1" d="m147.8,141.74c5.61-2.14,8.74-8.45,5.44-12.77-.36-.47-.82-.93-1.47-1.08-.97-.22-1.94.34-2.58.98-1.88,1.88-2.2,4.72-.78,6.86s4.5,3.42,7.42,3.1c3.01-.33,5.53-2.21,6.89-4.45s1.71-4.82,1.74-7.33c.02-1.55-.11-3.18-1.13-4.47-1.77-2.25-5.46-2.67-8.69-2.88-2.5-.16-5.81.14-6.32,2.18-.25.99.38,2.01,1.21,2.76,2.59,2.32,7.43,2.58,10.36.56s3.5-6.01,1.21-8.54c-1.49-1.64-3.84-2.57-6.15-3.31-4.5-1.43-9.55-2.37-14.1-1.04s-8.05,5.65-6.32,9.37c2.52.09,4.73-1.76,5.17-3.81.73-3.37-2.62-6.6-6.51-7.74s-8.18-.71-12.27-.26c-1.95.21-3.96.44-5.62,1.31s-2.85,2.57-2.27,4.13c.24.65.76,1.2,1.3,1.71,1.33,1.24,2.91,2.3,4.64,3.13,1.31.63,2.88,1.13,4.31.71,1.81-.54,2.6-2.46,2.03-3.99s-2.13-2.65-3.82-3.42c-6.86-3.13-16.75-.53-19.78,5.45-3.03,5.98,2.12,13.87,9.89,14.72,1.91.21,3.95.01,5.54-.89s2.58-2.61,2.05-4.14c-.62-1.77-3.13-2.77-5.32-2.45s-3.99,1.7-5.05,3.32c-2.25,3.41-1.53,7.84,1.16,11.02s7.11,5.17,11.7,5.97c4.26.74,9.51.15,11.61-3,.94-1.4,1.07-3.07,1.09-4.68.04-2.87-1.09-6.55-4.54-6.84.26.02-.28,5.56-.02,6.1.72,1.52,1.88,1.99,3.65,2.81,4.29,1.98,9.75,2.65,14.32.9Z"/><path class="cls-1" d="m272.35,75.74c-5.61-2.14-8.74-8.45-5.44-12.77.36-.47.82-.93,1.47-1.08.97-.22,1.94.34,2.58.98,1.88,1.88,2.2,4.72.78,6.86s-4.5,3.42-7.42,3.1c-3.01-.33-5.53-2.21-6.89-4.45s-1.71-4.82-1.74-7.33c-.02-1.55.11-3.18,1.13-4.47,1.77-2.25,5.46-2.67,8.69-2.88,2.5-.16,5.81.14,6.32,2.18.25.99-.38,2.01-1.21,2.76-2.59,2.32-7.43,2.58-10.36.56s-3.5-6.01-1.21-8.54c1.49-1.64,3.84-2.57,6.15-3.31,4.5-1.43,9.55-2.37,14.1-1.04s8.05,5.65,6.32,9.37c-2.52.09-4.73-1.76-5.17-3.81-.73-3.37,2.62-6.6,6.51-7.74s8.18-.71,12.27-.26c1.95.21,3.96.44,5.62,1.31s2.85,2.57,2.27,4.13c-.24.65-.76,1.2-1.3,1.71-1.33,1.24-2.91,2.3-4.64,3.13-1.31.63-2.88,1.13-4.31.71-1.81-.54-2.6-2.46-2.03-3.99s2.13-2.65,3.82-3.42c6.86-3.13,16.75-.53,19.78,5.45s-2.12,13.87-9.89,14.72c-1.91.21-3.95.01-5.54-.89s-2.58-2.61-2.05-4.14c.62-1.77,3.13-2.77,5.32-2.45s3.99,1.7,5.05,3.32c2.25,3.41,1.53,7.84-1.16,11.02s-7.11,5.17-11.7,5.97c-4.26.74-9.51.15-11.61-3-.94-1.4-1.07-3.07-1.09-4.68-.04-2.87,1.09-6.55,4.54-6.84-.26.02.28,5.56.02,6.1-.72,1.52-1.88,1.99-3.65,2.81-4.29,1.98-9.75,2.65-14.32.9Z"/><path class="cls-1" d="m399.35,141.74c-5.61-2.14-8.74-8.45-5.44-12.77.36-.47.82-.93,1.47-1.08.97-.22,1.94.34,2.58.98,1.88,1.88,2.2,4.72.78,6.86s-4.5,3.42-7.42,3.1c-3.01-.33-5.53-2.21-6.89-4.45s-1.71-4.82-1.74-7.33c-.02-1.55.11-3.18,1.13-4.47,1.77-2.25,5.46-2.67,8.69-2.88,2.5-.16,5.81.14,6.32,2.18.25.99-.38,2.01-1.21,2.76-2.59,2.32-7.43,2.58-10.36.56s-3.5-6.01-1.21-8.54c1.49-1.64,3.84-2.57,6.15-3.31,4.5-1.43,9.55-2.37,14.1-1.04s8.05,5.65,6.32,9.37c-2.52.09-4.73-1.76-5.17-3.81-.73-3.37,2.62-6.6,6.51-7.74s8.18-.71,12.27-.26c1.95.21,3.96.44,5.62,1.31s2.85,2.57,2.27,4.13c-.24.65-.76,1.2-1.3,1.71-1.33,1.24-2.91,2.3-4.64,3.13-1.31.63-2.88,1.13-4.31.71-1.81-.54-2.6-2.46-2.03-3.99s2.13-2.65,3.82-3.42c6.86-3.13,16.75-.53,19.78,5.45s-2.12,13.87-9.89,14.72c-1.91.21-3.95.01-5.54-.89s-2.58-2.61-2.05-4.14c.62-1.77,3.13-2.77,5.32-2.45s3.99,1.7,5.05,3.32c2.25,3.41,1.53,7.84-1.16,11.02s-7.11,5.17-11.7,5.97c-4.26.74-9.51.15-11.61-3-.94-1.4-1.07-3.07-1.09-4.68-.04-2.87,1.09-6.55,4.54-6.84-.26.02.28,5.56.02,6.1-.72,1.52-1.88,1.99-3.65,2.81-4.29,1.98-9.75,2.65-14.32.9Z"/><path class="cls-1" d="m323.35,113.74c-5.61-2.14-8.74-8.45-5.44-12.77.36-.47.82-.93,1.47-1.08.97-.22,1.94.34,2.58.98,1.88,1.88,2.2,4.72.78,6.86s-4.5,3.42-7.42,3.1c-3.01-.33-5.53-2.21-6.89-4.45s-1.71-4.82-1.74-7.33c-.02-1.55.11-3.18,1.13-4.47,1.77-2.25,5.46-2.67,8.69-2.88,2.5-.16,5.81.14,6.32,2.18.25.99-.38,2.01-1.21,2.76-2.59,2.32-7.43,2.58-10.36.56s-3.5-6.01-1.21-8.54c1.49-1.64,3.84-2.57,6.15-3.31,4.5-1.43,9.55-2.37,14.1-1.04s8.05,5.65,6.32,9.37c-2.52.09-4.73-1.76-5.17-3.81-.73-3.37,2.62-6.6,6.51-7.74s8.18-.71,12.27-.26c1.95.21,3.96.44,5.62,1.31s2.85,2.57,2.27,4.13c-.24.65-.76,1.2-1.3,1.71-1.33,1.24-2.91,2.3-4.64,3.13-1.31.63-2.88,1.13-4.31.71-1.81-.54-2.6-2.46-2.03-3.99s2.13-2.65,3.82-3.42c6.86-3.13,16.75-.53,19.78,5.45s-2.12,13.87-9.89,14.72c-1.91.21-3.95.01-5.54-.89s-2.58-2.61-2.05-4.14c.62-1.77,3.13-2.77,5.32-2.45s3.99,1.7,5.05,3.32c2.25,3.41,1.53,7.84-1.16,11.02s-7.11,5.17-11.7,5.97c-4.26.74-9.51.15-11.61-3-.94-1.4-1.07-3.07-1.09-4.68-.04-2.87,1.09-6.55,4.54-6.84-.26.02.28,5.56.02,6.1-.72,1.52-1.88,1.99-3.65,2.81-4.29,1.98-9.75,2.65-14.32.9Z"/><path class="cls-1" d="m304.35,169.74c-5.61-2.14-8.74-8.45-5.44-12.77.36-.47.82-.93,1.47-1.08.97-.22,1.94.34,2.58.98,1.88,1.88,2.2,4.72.78,6.86s-4.5,3.42-7.42,3.1c-3.01-.33-5.53-2.21-6.89-4.45s-1.71-4.82-1.74-7.33c-.02-1.55.11-3.18,1.13-4.47,1.77-2.25,5.46-2.67,8.69-2.88,2.5-.16,5.81.14,6.32,2.18.25.99-.38,2.01-1.21,2.76-2.59,2.32-7.43,2.58-10.36.56s-3.5-6.01-1.21-8.54c1.49-1.64,3.84-2.57,6.15-3.31,4.5-1.43,9.55-2.37,14.1-1.04s8.05,5.65,6.32,9.37c-2.52.09-4.73-1.76-5.17-3.81-.73-3.37,2.62-6.6,6.51-7.74s8.18-.71,12.27-.26c1.95.21,3.96.44,5.62,1.31s2.85,2.57,2.27,4.13c-.24.65-.76,1.2-1.3,1.71-1.33,1.24-2.91,2.3-4.64,3.13-1.31.63-2.88,1.13-4.31.71-1.81-.54-2.6-2.46-2.03-3.99s2.13-2.65,3.82-3.42c6.86-3.13,16.75-.53,19.78,5.45s-2.12,13.87-9.89,14.72c-1.91.21-3.95.01-5.54-.89s-2.58-2.61-2.05-4.14c.62-1.77,3.13-2.77,5.32-2.45s3.99,1.7,5.05,3.32c2.25,3.41,1.53,7.84-1.16,11.02s-7.11,5.17-11.7,5.97c-4.26.74-9.51.15-11.61-3-.94-1.4-1.07-3.07-1.09-4.68-.04-2.87,1.09-6.55,4.54-6.84-.26.02.28,5.56.02,6.1-.72,1.52-1.88,1.99-3.65,2.81-4.29,1.98-9.75,2.65-14.32.9Z"/></svg>