<?xml version="1.0" encoding="UTF-8"?>
<svg id="Layer_1" data-name="Layer 1" xmlns="http://www.w3.org/2000/svg" xmlns:xlink="http://www.w3.org/1999/xlink" viewBox="0 0 207.2 207.2">
  <defs>
    <style>
      .cls-1, .cls-2, .cls-3 {
        fill: none;
      }

      .cls-2 {
        stroke-width: .14px;
      }

      .cls-2, .cls-3 {
        stroke: #f9f9f9;
        stroke-miterlimit: 10;
      }

      .cls-4 {
        clip-path: url(#clippath);
      }

      .cls-5 {
        fill: #000001;
      }

      .cls-6 {
        fill: #fff;
      }

      .cls-7 {
        clip-path: url(#clippath-1);
      }

      .cls-8 {
        clip-path: url(#clippath-3);
      }

      .cls-9 {
        clip-path: url(#clippath-2);
      }

      .cls-3 {
        stroke-width: .17px;
      }
    </style>
    <clipPath id="clippath">
      <rect class="cls-1" y="0" width="207.2" height="207.2"/>
    </clipPath>
    <clipPath id="clippath-1">
      <rect class="cls-1" y="0" width="207.2" height="207.2"/>
    </clipPath>
    <clipPath id="clippath-2">
      <circle class="cls-1" cx="103.6" cy="103.6" r="103.6"/>
    </clipPath>
    <clipPath id="clippath-3">
      <rect class="cls-1" y="0" width="207.2" height="207.2"/>
    </clipPath>
  </defs>
  <g id="Artwork_6" data-name="Artwork 6">
    <g class="cls-4">
      <g class="cls-7">
        <path class="cls-6" d="m207.2,103.6c0,57.22-46.38,103.6-103.6,103.6S0,160.82,0,103.6,46.38,0,103.6,0s103.6,46.38,103.6,103.6"/>
      </g>
      <g class="cls-9">
        <polygon class="cls-5" points="164.76 13.32 116.83 31.99 76.7 -.18 84.49 -51.02 132.42 -69.69 172.55 -37.52 164.76 13.32"/>
        <polygon class="cls-2" points="164.76 13.32 116.83 31.99 76.7 -.18 84.49 -51.02 132.42 -69.69 172.55 -37.52 164.76 13.32"/>
        <polygon class="cls-5" points="264.45 150.51 216.52 169.19 176.38 137.02 184.17 86.17 232.1 67.5 272.24 99.67 264.45 150.51"/>
        <polygon class="cls-2" points="264.45 150.51 216.52 169.19 176.38 137.02 184.17 86.17 232.1 67.5 272.24 99.67 264.45 150.51"/>
        <polygon class="cls-5" points="30.99 114.73 -16.94 133.41 -57.08 101.24 -49.29 50.39 -1.36 31.72 38.78 63.89 30.99 114.73"/>
        <polygon class="cls-2" points="30.99 114.73 -16.94 133.41 -57.08 101.24 -49.29 50.39 -1.36 31.72 38.78 63.89 30.99 114.73"/>
        <polygon class="cls-5" points="127.52 256.32 79.59 274.99 39.46 242.82 47.25 191.98 95.18 173.3 135.31 205.47 127.52 256.32"/>
        <polygon class="cls-2" points="127.52 256.32 79.59 274.99 39.46 242.82 47.25 191.98 95.18 173.3 135.31 205.47 127.52 256.32"/>
      </g>
      <g class="cls-8">
        <polygon class="cls-5" points="146.3 128.49 101.09 144.48 62.74 115.68 69.6 70.89 114.82 54.89 153.17 83.69 146.3 128.49"/>
        <polygon class="cls-3" points="146.3 128.49 101.09 144.48 62.74 115.68 69.6 70.89 114.82 54.89 153.17 83.69 146.3 128.49"/>
      </g>
    </g>
  </g>
</svg>