<?xml version="1.0" encoding="UTF-8"?>
<svg xmlns="http://www.w3.org/2000/svg" viewBox="0 0 2051.57 2004.64">
  <defs>
    <style>
      .cls-1 {
        stroke-width: 14px;
      }

      .cls-1, .cls-2, .cls-3 {
        fill: none;
      }

      .cls-1, .cls-4, .cls-3, .cls-5, .cls-6, .cls-7 {
        stroke-miterlimit: 10;
      }

      .cls-1, .cls-3 {
        stroke: #221f20;
        stroke-linecap: round;
      }

      .cls-4 {
        fill: #e68601;
        stroke: #ffb271;
        stroke-width: .93px;
      }

      .cls-3 {
        stroke-width: 12px;
      }

      .cls-8, .cls-7 {
        fill: #e6a124;
      }

      .cls-9 {
        fill: #b27e3f;
      }

      .cls-10 {
        fill: #e28807;
      }

      .cls-11 {
        fill: #221f20;
      }

      .cls-12 {
        fill: #404040;
      }

      .cls-5 {
        stroke-width: 2.23px;
      }

      .cls-5, .cls-6 {
        stroke: #0a0909;
      }

      .cls-6 {
        stroke-width: 2.25px;
      }

      .cls-7 {
        stroke: #e6a124;
        stroke-width: 1.46px;
      }
    </style>
  </defs>
  <g id="Layer_1" data-name="Layer 1">
    <path class="cls-2" d="m544.26,335.97c-1.95-4.32-14.43-33.2,0-63.68.96-2.03,19.8-40.16,59.29-41.72,29.28-1.16,57.18,18.29,68.07,48.31"/>
  </g>
  <g id="Layer_2" data-name="Layer 2">
    <path class="cls-10" d="m1343.2,1568.89c26.06,33.45,139.6-56.51,361.32-153.11,183.51-79.95,213.62-65.32,263.68-126.16,95.59-116.18,84.9-289.98,80.86-355.54-3.97-64.53-8.14-132.27-49.22-198.8-42.41-68.69-82.5-68.59-94.92-122.34-19.09-82.57,64.6-129.95,42.19-206.44-13.92-47.49-48.64-37.63-91.41-103.22-54.67-83.83-43.36-169.55-64.82-171.56-18.74-1.75-50.73,46.49-47.68,95.1,5.05,80.4,101.48,87.88,119.53,172.03,17.46,81.37-63.19,118.74-49.22,206.44,11.67,73.25,72.27,74.44,126.57,160.57,64.06,101.62,75.55,252.03,28.13,359.36-42.78,96.83-124.98,139.29-217.97,187.33-194.14,100.28-333.71,66.58-393.86,182.79-3.98,7.69-28.12,54.34-13.17,73.54Z"/>
    <path class="cls-4" d="m787.63,106.08c-88.29-14.66-119.23-68.76-172.07-49.13-56.39,20.95-54.76,95.06-95.09,189.81-61.79,145.17-126.53,114.35-271.7,310.39-22.54,30.45-77.67,130.46-187.92,330.49-10.67,19.36-70.58,128.64-58.87,136.22,10.23,6.62,55.99-76.69,90.57-69.22,75.9,16.39,35.9,456.71,70.19,460.01,17.93,1.73,32.5-118.36,63.4-118.35,28.43,0,61.21,101.7,65.66,196.51,4.05,86.42-15.81,159.08-2.26,163.01,11.9,3.46,34.12-50.64,45.28-46.89,10.01,3.36-4.55,48,0,100.49,6.38,73.53,48.86,146.06,74.72,142.91,31.81-3.86,30.96-121.34,56.6-122.82,31.8-1.83,46.96,178.04,106.41,185.34,44.47,5.46,79.47-89.84,113.21-80.39,36.85,10.32,24.15,132.19,49.81,136.22,25.38,3.98,54.22-112.7,83.77-109.42,30.12,3.34,31.92,128.02,56.6,129.52,25.38,1.54,39.28-129.25,76.98-131.75,40.16-2.67,61.8,143.32,108.68,145.15,43.5,1.7,63.17-169.64,95.09-167.48,21.19,1.44,17.24,75.53,56.6,89.32,33.4,11.7,82.14-25.56,108.68-62.53,39.15-54.53,14.93-87.43,47.55-171.94,4.66-12.07,50.14-127.16,101.89-125.05,46.16,1.88,59.22,95.47,88.3,93.79,63.2-3.66,68.71-449.53,149.43-457.77,31.26-3.19,50.44,61.65,81.51,55.83,40.6-7.61,60.52-128.18,52.08-234.47-7.72-97.19-37.98-167.56-131.32-348.35-90.41-175.11-199.97-250.7-167.55-312.63,16.61-31.72,55.83-35.99,88.3-98.25,13.02-24.96,29.14-57.29,15.85-78.16-9.55-14.99-30.26-16.57-71.32-19.97-33.7-2.8-46.29.56-114.29,1.5-19.85.27-29.78.4-43.35.03-60.07-1.65-98.54-2.71-106.14-19.52-9.98-22.09,41.72-52.55,33.96-69.22-14.22-30.58-215.22,37.22-221.89,20.1-4.67-12,89.64-56.8,86.04-64.76-4.39-9.69-147.24,50.25-156.23,33.5-6.71-12.52,65.78-59.55,61.13-66.99-7.24-11.57-163.88,132.25-328.3,104.95Z"/>
    <path class="cls-8" d="m1321.34,407.85c37.2-60.34,31.47-129.19-1.49-158.09-40.12-35.19-136.78-25.42-190.03,57.07l191.52,101.02Z"/>
    <rect class="cls-8" x="644.48" y="366.58" width="642.5" height="750.33" rx="321.25" ry="321.25"/>
    <path class="cls-12" d="m945.86,680.6c61.14-10.57,114.07,49.26,103.76,76.1-13.16,34.25-141.45,46.43-165.87,12.13-16.95-23.81,9.65-79.17,62.11-88.23Z"/>
    <rect class="cls-9" x="629.4" y="705.38" width="340.04" height="296.94" rx="117.79" ry="117.79"/>
    <rect class="cls-9" x="959.8" y="705.38" width="340.04" height="296.94" rx="121" ry="121"/>
    <path class="cls-11" d="m1186.28,875.86c-.31,0-.7-.06-1,0,.29-.07.71.01,1,.01.31,0,.7.06,1-.01-.29.07-.71,0-1,0Z"/>
    <line class="cls-1" x1="1224.93" y1="791.29" x2="1404" y2="722.01"/>
    <line class="cls-1" x1="1224.93" y1="841.55" x2="1451.79" y2="841.55"/>
    <line class="cls-3" x1="1219.2" y1="882.97" x2="1452.71" y2="954.6"/>
    <line class="cls-1" x1="700.74" y1="791.29" x2="521.67" y2="722.01"/>
    <line class="cls-1" x1="700.74" y1="841.55" x2="473.88" y2="841.55"/>
    <line class="cls-3" x1="706.47" y1="882.97" x2="472.96" y2="954.6"/>
    <path class="cls-7" d="m617.8,407.85c-37.2-60.34-31.47-129.19,1.49-158.09,40.12-35.19,136.78-25.42,190.03,57.07l-191.52,101.02Z"/>
  </g>
  <g id="Layer_3" data-name="Layer 3">
    <polyline class="cls-6" points="969.4 576.69 869.43 631.22 755.69 549.24 806.5 486.71 1131.97 486.71 1182.78 549.24 1069.04 631.22 969.07 576.69"/>
    <polygon class="cls-5" points="805.56 486.71 755.69 549.24 728.83 470.86 805.56 486.71"/>
    <polygon class="cls-5" points="1132.43 486.71 1182.3 549.24 1209.17 470.86 1132.43 486.71"/>
  </g>
</svg>