<?xml version="1.0" encoding="UTF-8"?><svg id="Layer_2" xmlns="http://www.w3.org/2000/svg" width="18.05mm" height="17.64mm" xmlns:xlink="http://www.w3.org/1999/xlink" viewBox="0 0 51.17 50"><defs><style>.cls-1,.cls-2,.cls-3,.cls-4,.cls-5,.cls-6,.cls-7,.cls-8{fill:none;}.cls-2{stroke-width:.04px;}.cls-2,.cls-3,.cls-4,.cls-5,.cls-6,.cls-7,.cls-8{stroke-miterlimit:10;}.cls-2,.cls-7,.cls-8{stroke:#060204;stroke-linecap:round;}.cls-9{clip-path:url(#clippath);}.cls-10{fill:#060204;}.cls-11{fill:#000001;}.cls-12{fill:#e3a041;}.cls-13{fill:#303030;}.cls-14{fill:#af7a3a;}.cls-15{fill:#dd863c;}.cls-16{fill:#e0843b;}.cls-3{stroke-width:.02px;}.cls-3,.cls-6{stroke:#eeab6e;}.cls-17{clip-path:url(#clippath-1);}.cls-4{stroke-width:.06px;}.cls-4,.cls-5{stroke:#010001;}.cls-5{stroke-width:.06px;}.cls-6{stroke-width:.04px;}.cls-7{stroke-width:.3px;}.cls-8{stroke-width:.35px;}</style><clipPath id="clippath"><rect class="cls-1" width="51.17" height="50"/></clipPath><clipPath id="clippath-1"><rect class="cls-1" y="0" width="51.17" height="50"/></clipPath></defs><g id="Layer_1-2"><g id="Artwork_9"><g class="cls-9"><g class="cls-17"><path class="cls-15" d="m33.5,39.13c.65.83,3.48-1.41,9.01-3.82,4.58-1.99,5.33-1.63,6.58-3.15,2.38-2.9,2.12-7.23,2.02-8.87-.1-1.61-.2-3.3-1.23-4.96-1.06-1.71-2.06-1.71-2.37-3.05-.48-2.06,1.61-3.24,1.05-5.15-.35-1.18-1.21-.94-2.28-2.57-1.36-2.09-1.08-4.23-1.62-4.28-.47-.04-1.27,1.16-1.19,2.37.13,2.01,2.53,2.19,2.98,4.29.44,2.03-1.58,2.96-1.23,5.15.29,1.83,1.8,1.86,3.16,4,1.6,2.53,1.88,6.29.7,8.96-1.07,2.42-3.12,3.47-5.44,4.67-4.84,2.5-8.32,1.66-9.82,4.56-.1.19-.7,1.36-.33,1.83"/><path class="cls-16" d="m19.65,2.65c-2.2-.37-2.97-1.72-4.29-1.23-1.41.52-1.37,2.37-2.37,4.73-1.54,3.62-3.16,2.85-6.78,7.74-.56.76-1.94,3.25-4.69,8.24-.27.48-1.76,3.21-1.47,3.4.26.17,1.4-1.91,2.26-1.73,1.89.41.9,11.39,1.75,11.47.45.04.81-2.95,1.58-2.95.71,0,1.53,2.54,1.64,4.9.1,2.16-.39,3.97-.06,4.07.3.09.85-1.26,1.13-1.17.25.08-.11,1.2,0,2.51.16,1.83,1.22,3.64,1.86,3.56.79-.1.77-3.03,1.41-3.06.79-.05,1.17,4.44,2.65,4.62,1.11.14,1.98-2.24,2.82-2.01.92.26.6,3.3,1.24,3.4.63.1,1.35-2.81,2.09-2.73.75.08.8,3.19,1.41,3.23.63.04.98-3.22,1.92-3.29,1-.07,1.54,3.57,2.71,3.62,1.08.04,1.58-4.23,2.37-4.18.53.04.43,1.88,1.41,2.23.83.29,2.05-.64,2.71-1.56.98-1.36.37-2.18,1.19-4.29.12-.3,1.25-3.17,2.54-3.12,1.15.05,1.48,2.38,2.2,2.34,1.58-.09,1.71-11.21,3.73-11.42.78-.08,1.26,1.54,2.03,1.39,1.01-.19,1.51-3.2,1.3-5.85-.19-2.42-.95-4.18-3.28-8.69-2.25-4.37-4.99-6.25-4.18-7.8.41-.79,1.39-.9,2.2-2.45.32-.62.73-1.43.4-1.95-.24-.37-.75-.41-1.78-.5-.84-.07-1.15.01-2.85.04-.5,0-.74.01-1.08,0-1.5-.04-2.46-.07-2.65-.49-.25-.55,1.04-1.31.85-1.73-.35-.76-5.37.93-5.53.5-.12-.3,2.24-1.42,2.15-1.62-.11-.24-3.67,1.25-3.9.84-.17-.31,1.64-1.49,1.52-1.67-.18-.29-4.09,3.3-8.19,2.62"/><path class="cls-3" d="m19.65,2.65c-2.2-.37-2.97-1.72-4.29-1.23-1.41.52-1.37,2.37-2.37,4.73-1.54,3.62-3.16,2.85-6.78,7.74-.56.76-1.94,3.25-4.69,8.24-.27.48-1.76,3.21-1.47,3.4.26.17,1.4-1.91,2.26-1.73,1.89.41.9,11.39,1.75,11.47.45.04.81-2.95,1.58-2.95.71,0,1.53,2.54,1.64,4.9.1,2.16-.39,3.97-.06,4.07.3.09.85-1.26,1.13-1.17.25.08-.11,1.2,0,2.51.16,1.83,1.22,3.64,1.86,3.56.79-.1.77-3.03,1.41-3.06.79-.05,1.17,4.44,2.65,4.62,1.11.14,1.98-2.24,2.82-2.01.92.26.6,3.3,1.24,3.4.63.1,1.35-2.81,2.09-2.73.75.08.8,3.19,1.41,3.23.63.04.98-3.22,1.92-3.29,1-.07,1.54,3.57,2.71,3.62,1.08.04,1.58-4.23,2.37-4.18.53.04.43,1.88,1.41,2.23.83.29,2.05-.64,2.71-1.56.98-1.36.37-2.18,1.19-4.29.12-.3,1.25-3.17,2.54-3.12,1.15.05,1.48,2.38,2.2,2.34,1.58-.09,1.71-11.21,3.73-11.42.78-.08,1.26,1.54,2.03,1.39,1.01-.19,1.51-3.2,1.3-5.85-.19-2.42-.95-4.18-3.28-8.69-2.25-4.37-4.99-6.25-4.18-7.8.41-.79,1.39-.9,2.2-2.45.32-.62.73-1.43.4-1.95-.24-.37-.75-.41-1.78-.5-.84-.07-1.15.01-2.85.04-.5,0-.74.01-1.08,0-1.5-.04-2.46-.07-2.65-.49-.25-.55,1.04-1.31.85-1.73-.35-.76-5.37.93-5.53.5-.12-.3,2.24-1.42,2.15-1.62-.11-.24-3.67,1.25-3.9.84-.17-.31,1.64-1.49,1.52-1.67-.18-.29-4.09,3.3-8.19,2.62Z"/><path class="cls-16" d="m34.17,10.59c.93-1.51.78-3.22-.04-3.94-1-.88-3.41-.63-4.74,1.42"/><path class="cls-6" d="m34.17,10.59c.93-1.51.78-3.22-.04-3.94-1-.88-3.41-.63-4.74,1.42"/><path class="cls-12" d="m24.09,27.86h0c-4.43,0-8.01-3.59-8.01-8.01v-2.69c0-4.43,3.59-8.01,8.01-8.01h0c4.43,0,8.01,3.59,8.01,8.01v2.69c0,4.43-3.59,8.01-8.01,8.01"/><path class="cls-13" d="m23.59,16.98c1.53-.26,2.85,1.23,2.59,1.9-.33.85-3.53,1.16-4.14.3-.42-.59.24-1.97,1.55-2.2"/><path class="cls-2" d="m23.59,16.98c1.53-.26,2.85,1.23,2.59,1.9-.33.85-3.53,1.16-4.14.3-.42-.59.24-1.97,1.55-2.2Z"/><path class="cls-14" d="m21.24,25h-2.61c-1.62,0-2.94-1.32-2.94-2.94v-1.53c0-1.62,1.32-2.94,2.94-2.94h2.61c1.62,0,2.94,1.32,2.94,2.94v1.53c0,1.62-1.32,2.94-2.94,2.94"/><path class="cls-14" d="m29.4,25h-2.45c-1.67,0-3.02-1.35-3.02-3.02v-1.37c0-1.67,1.35-3.02,3.02-3.02h2.45c1.67,0,3.02,1.35,3.02,3.02v1.37c0,1.67-1.35,3.02-3.02,3.02"/><path class="cls-10" d="m29.59,21.85s-.02,0-.02,0c0,0,.02,0,.02,0,0,0,.02,0,.02,0,0,0-.02,0-.02,0"/><line class="cls-8" x1="30.55" y1="19.74" x2="35.02" y2="18.01"/><line class="cls-8" x1="30.55" y1="20.99" x2="36.21" y2="20.99"/><line class="cls-7" x1="30.41" y1="22.02" x2="36.23" y2="23.81"/><line class="cls-8" x1="17.48" y1="19.74" x2="13.01" y2="18.01"/><line class="cls-8" x1="17.48" y1="20.99" x2="11.82" y2="20.99"/><line class="cls-7" x1="17.62" y1="22.02" x2="11.8" y2="23.81"/><path class="cls-16" d="m14.68,10.59c-.93-1.51-.78-3.22.04-3.94,1-.88,3.41-.63,4.74,1.42"/><path class="cls-6" d="m14.68,10.59c-.93-1.51-.78-3.22.04-3.94,1-.88,3.41-.63,4.74,1.42"/><polyline class="cls-11" points="24.18 14.38 21.69 15.74 18.85 13.7 20.12 12.14 28.23 12.14 29.5 13.7 26.66 15.74 24.17 14.38"/><polyline class="cls-4" points="24.18 14.38 21.69 15.74 18.85 13.7 20.12 12.14 28.23 12.14 29.5 13.7 26.66 15.74 24.17 14.38"/><polygon class="cls-11" points="20.09 12.14 18.85 13.7 18.18 11.74 20.09 12.14"/><polygon class="cls-5" points="20.09 12.14 18.85 13.7 18.18 11.74 20.09 12.14"/><polygon class="cls-11" points="28.25 12.14 29.49 13.7 30.16 11.74 28.25 12.14"/><polygon class="cls-5" points="28.25 12.14 29.49 13.7 30.16 11.74 28.25 12.14"/></g></g></g></g></svg>